<svg width="246" height="40" viewBox="0 0 246 40" fill="none" xmlns="http://www.w3.org/2000/svg">
<path d="M0.500273 13.746C1.38961 13.378 2.30961 12.964 3.26027 12.504C4.24161 12.0133 5.19227 11.492 6.11227 10.94C7.03227 10.3573 7.90627 9.75933 8.73427 9.146C9.59294 8.502 10.3596 7.82733 11.0343 7.122H15.8183V39H8.96427V16.046C8.04427 16.6593 7.01694 17.2267 5.88227 17.748C4.74761 18.2387 3.64361 18.668 2.57027 19.036L0.500273 13.746ZM39.9848 29.616C39.9848 28.7267 39.7855 27.9447 39.3868 27.27C38.9881 26.5647 38.2981 25.982 37.3168 25.522C36.3355 25.062 35.0168 24.7093 33.3608 24.464C31.7048 24.2187 29.6195 24.096 27.1048 24.096C27.4421 21.244 27.7181 18.346 27.9328 15.402C28.1475 12.458 28.3161 9.698 28.4388 7.122H45.6888V12.872H34.1888C34.1275 13.976 34.0508 15.0493 33.9588 16.092C33.8975 17.104 33.8208 17.9933 33.7288 18.76C38.2061 19.0667 41.5028 20.1247 43.6188 21.934C45.7655 23.7127 46.8388 26.1967 46.8388 29.386C46.8388 30.858 46.5781 32.2227 46.0568 33.48C45.5355 34.7373 44.7535 35.826 43.7108 36.746C42.6681 37.666 41.3495 38.3867 39.7548 38.908C38.1908 39.4293 36.3508 39.69 34.2348 39.69C33.4068 39.69 32.5328 39.6287 31.6128 39.506C30.7235 39.414 29.8495 39.276 28.9908 39.092C28.1628 38.9387 27.4115 38.77 26.7368 38.586C26.0621 38.402 25.5408 38.218 25.1728 38.034L26.4148 32.376C27.1815 32.7133 28.1935 33.0507 29.4508 33.388C30.7081 33.6947 32.2108 33.848 33.9588 33.848C36.0748 33.848 37.6081 33.434 38.5588 32.606C39.5095 31.7473 39.9848 30.7507 39.9848 29.616ZM74.1333 22.992C74.1333 28.3587 73.106 32.4833 71.0513 35.366C69.0273 38.218 66.2213 39.644 62.6333 39.644C59.0453 39.644 56.224 38.218 54.1693 35.366C52.1453 32.4833 51.1333 28.3587 51.1333 22.992C51.1333 20.324 51.394 17.9627 51.9153 15.908C52.4673 13.8533 53.2493 12.1207 54.2613 10.71C55.2733 9.29933 56.4847 8.226 57.8953 7.49C59.306 6.754 60.8853 6.386 62.6333 6.386C66.2213 6.386 69.0273 7.82733 71.0513 10.71C73.106 13.562 74.1333 17.656 74.1333 22.992ZM67.1413 22.992C67.1413 21.3973 67.0647 19.956 66.9113 18.668C66.758 17.3493 66.5127 16.2147 66.1753 15.264C65.838 14.3133 65.378 13.5773 64.7953 13.056C64.2127 12.5347 63.492 12.274 62.6333 12.274C61.7747 12.274 61.054 12.5347 60.4713 13.056C59.9193 13.5773 59.4593 14.3133 59.0913 15.264C58.754 16.2147 58.5087 17.3493 58.3553 18.668C58.202 19.956 58.1253 21.3973 58.1253 22.992C58.1253 24.5867 58.202 26.0433 58.3553 27.362C58.5087 28.6807 58.754 29.8153 59.0913 30.766C59.4593 31.7167 59.9193 32.4527 60.4713 32.974C61.054 33.4953 61.7747 33.756 62.6333 33.756C63.492 33.756 64.2127 33.4953 64.7953 32.974C65.378 32.4527 65.838 31.7167 66.1753 30.766C66.5127 29.8153 66.758 28.6807 66.9113 27.362C67.0647 26.0433 67.1413 24.5867 67.1413 22.992ZM100.278 22.992C100.278 28.3587 99.2505 32.4833 97.1959 35.366C95.1719 38.218 92.3659 39.644 88.7779 39.644C85.1899 39.644 82.3685 38.218 80.3139 35.366C78.2899 32.4833 77.2779 28.3587 77.2779 22.992C77.2779 20.324 77.5385 17.9627 78.0599 15.908C78.6119 13.8533 79.3939 12.1207 80.4059 10.71C81.4179 9.29933 82.6292 8.226 84.0399 7.49C85.4505 6.754 87.0299 6.386 88.7779 6.386C92.3659 6.386 95.1719 7.82733 97.1959 10.71C99.2505 13.562 100.278 17.656 100.278 22.992ZM93.2859 22.992C93.2859 21.3973 93.2092 19.956 93.0559 18.668C92.9025 17.3493 92.6572 16.2147 92.3199 15.264C91.9825 14.3133 91.5225 13.5773 90.9399 13.056C90.3572 12.5347 89.6365 12.274 88.7779 12.274C87.9192 12.274 87.1985 12.5347 86.6159 13.056C86.0639 13.5773 85.6039 14.3133 85.2359 15.264C84.8985 16.2147 84.6532 17.3493 84.4999 18.668C84.3465 19.956 84.2699 21.3973 84.2699 22.992C84.2699 24.5867 84.3465 26.0433 84.4999 27.362C84.6532 28.6807 84.8985 29.8153 85.2359 30.766C85.6039 31.7167 86.0639 32.4527 86.6159 32.974C87.1985 33.4953 87.9192 33.756 88.7779 33.756C89.6365 33.756 90.3572 33.4953 90.9399 32.974C91.5225 32.4527 91.9825 31.7167 92.3199 30.766C92.6572 29.8153 92.9025 28.6807 93.0559 27.362C93.2092 26.0433 93.2859 24.5867 93.2859 22.992ZM126.422 22.992C126.422 28.3587 125.395 32.4833 123.34 35.366C121.316 38.218 118.51 39.644 114.922 39.644C111.334 39.644 108.513 38.218 106.458 35.366C104.434 32.4833 103.422 28.3587 103.422 22.992C103.422 20.324 103.683 17.9627 104.204 15.908C104.756 13.8533 105.538 12.1207 106.55 10.71C107.562 9.29933 108.774 8.226 110.184 7.49C111.595 6.754 113.174 6.386 114.922 6.386C118.51 6.386 121.316 7.82733 123.34 10.71C125.395 13.562 126.422 17.656 126.422 22.992ZM119.43 22.992C119.43 21.3973 119.354 19.956 119.2 18.668C119.047 17.3493 118.802 16.2147 118.464 15.264C118.127 14.3133 117.667 13.5773 117.084 13.056C116.502 12.5347 115.781 12.274 114.922 12.274C114.064 12.274 113.343 12.5347 112.76 13.056C112.208 13.5773 111.748 14.3133 111.38 15.264C111.043 16.2147 110.798 17.3493 110.644 18.668C110.491 19.956 110.414 21.3973 110.414 22.992C110.414 24.5867 110.491 26.0433 110.644 27.362C110.798 28.6807 111.043 29.8153 111.38 30.766C111.748 31.7167 112.208 32.4527 112.76 32.974C113.343 33.4953 114.064 33.756 114.922 33.756C115.781 33.756 116.502 33.4953 117.084 32.974C117.667 32.4527 118.127 31.7167 118.464 30.766C118.802 29.8153 119.047 28.6807 119.2 27.362C119.354 26.0433 119.43 24.5867 119.43 22.992ZM152.567 22.992C152.567 28.3587 151.54 32.4833 149.485 35.366C147.461 38.218 144.655 39.644 141.067 39.644C137.479 39.644 134.658 38.218 132.603 35.366C130.579 32.4833 129.567 28.3587 129.567 22.992C129.567 20.324 129.828 17.9627 130.349 15.908C130.901 13.8533 131.683 12.1207 132.695 10.71C133.707 9.29933 134.918 8.226 136.329 7.49C137.74 6.754 139.319 6.386 141.067 6.386C144.655 6.386 147.461 7.82733 149.485 10.71C151.54 13.562 152.567 17.656 152.567 22.992ZM145.575 22.992C145.575 21.3973 145.498 19.956 145.345 18.668C145.192 17.3493 144.946 16.2147 144.609 15.264C144.272 14.3133 143.812 13.5773 143.229 13.056C142.646 12.5347 141.926 12.274 141.067 12.274C140.208 12.274 139.488 12.5347 138.905 13.056C138.353 13.5773 137.893 14.3133 137.525 15.264C137.188 16.2147 136.942 17.3493 136.789 18.668C136.636 19.956 136.559 21.3973 136.559 22.992C136.559 24.5867 136.636 26.0433 136.789 27.362C136.942 28.6807 137.188 29.8153 137.525 30.766C137.893 31.7167 138.353 32.4527 138.905 32.974C139.488 33.4953 140.208 33.756 141.067 33.756C141.926 33.756 142.646 33.4953 143.229 32.974C143.812 32.4527 144.272 31.7167 144.609 30.766C144.946 29.8153 145.192 28.6807 145.345 27.362C145.498 26.0433 145.575 24.5867 145.575 22.992ZM156.401 22.394H164.083V13.884H170.339V22.394H178.021V28.144H170.339V36.654H164.083V28.144H156.401V22.394ZM207.857 26.166C207.857 23.958 207.565 22.394 206.983 21.474C206.431 20.554 205.465 20.094 204.085 20.094C203.655 20.094 203.211 20.1247 202.751 20.186C202.291 20.2167 201.846 20.2627 201.417 20.324V39H194.563V15.632C195.145 15.4787 195.82 15.3253 196.587 15.172C197.384 14.988 198.212 14.8347 199.071 14.712C199.96 14.5587 200.865 14.4513 201.785 14.39C202.705 14.298 203.609 14.252 204.499 14.252C206.247 14.252 207.657 14.482 208.731 14.942C209.835 15.3713 210.739 15.8927 211.445 16.506C212.426 15.8007 213.545 15.2487 214.803 14.85C216.091 14.4513 217.271 14.252 218.345 14.252C220.277 14.252 221.856 14.528 223.083 15.08C224.34 15.6013 225.337 16.3527 226.073 17.334C226.809 18.3153 227.315 19.4807 227.591 20.83C227.867 22.1793 228.005 23.682 228.005 25.338V39H221.151V26.166C221.151 23.958 220.859 22.394 220.277 21.474C219.725 20.554 218.759 20.094 217.379 20.094C217.011 20.094 216.489 20.186 215.815 20.37C215.171 20.554 214.634 20.784 214.205 21.06C214.419 21.7653 214.557 22.5167 214.619 23.314C214.68 24.0807 214.711 24.9087 214.711 25.798V39H207.857V26.166ZM245.361 6.524C245.361 7.19867 245.253 7.812 245.039 8.364C244.824 8.916 244.533 9.43733 244.165 9.928C243.827 10.388 243.429 10.8327 242.969 11.262C242.509 11.6607 242.049 12.0593 241.589 12.458C241.067 12.8873 240.531 13.378 239.979 13.93C239.427 14.4513 238.982 14.942 238.645 15.402H245.821V19.588H232.619C232.588 19.3427 232.573 19.128 232.573 18.944C232.573 18.7293 232.573 18.5147 232.573 18.3C232.573 16.7973 232.971 15.448 233.769 14.252C234.597 13.0253 235.793 11.7527 237.357 10.434C238.185 9.72866 238.844 9.11533 239.335 8.594C239.856 8.07267 240.117 7.536 240.117 6.984C240.117 6.524 239.979 6.156 239.703 5.88C239.427 5.604 239.028 5.466 238.507 5.466C237.617 5.466 236.789 5.65 236.023 6.018C235.287 6.35533 234.658 6.73867 234.137 7.168L231.745 3.58C232.542 2.90533 233.554 2.292 234.781 1.74C236.038 1.15733 237.357 0.865997 238.737 0.865997C239.933 0.865997 240.945 1.004 241.773 1.28C242.631 1.556 243.321 1.95466 243.843 2.476C244.364 2.96666 244.747 3.56466 244.993 4.27C245.238 4.94466 245.361 5.696 245.361 6.524Z" fill="#FF5A30"/>
</svg>
