<svg width="128" height="34" viewBox="0 0 128 34" fill="none" xmlns="http://www.w3.org/2000/svg">
<path d="M21.4547 9.494C21.4547 10.6593 21.2247 11.7787 20.7647 12.852C20.3047 13.9253 19.7067 14.968 18.9707 15.98C18.2347 16.9613 17.4067 17.912 16.4867 18.832C15.5667 19.752 14.662 20.626 13.7727 21.454C13.3127 21.8833 12.8067 22.374 12.2547 22.926C11.7333 23.4473 11.2273 23.984 10.7367 24.536C10.246 25.088 9.80134 25.6093 9.40267 26.1C9.03467 26.56 8.80467 26.9433 8.71267 27.25H22.4207V33H1.16867C1.10734 32.6627 1.07667 32.2333 1.07667 31.712C1.07667 31.1907 1.07667 30.8227 1.07667 30.608C1.07667 29.136 1.30667 27.7867 1.76667 26.56C2.25734 25.3333 2.88601 24.1987 3.65267 23.156C4.41934 22.0827 5.27801 21.086 6.22867 20.166C7.21001 19.246 8.17601 18.326 9.12667 17.406C9.86267 16.7007 10.5527 16.0413 11.1967 15.428C11.8407 14.784 12.408 14.1707 12.8987 13.588C13.3893 12.9747 13.7727 12.3767 14.0487 11.794C14.3247 11.1807 14.4627 10.5673 14.4627 9.954C14.4627 8.60467 14.0793 7.654 13.3127 7.102C12.546 6.55 11.5953 6.274 10.4607 6.274C9.63267 6.274 8.85067 6.412 8.11467 6.688C7.40934 6.93333 6.75001 7.24 6.13667 7.608C5.55401 7.94533 5.04801 8.298 4.61867 8.666C4.18934 9.00333 3.86734 9.27933 3.65267 9.494L0.248672 4.71C1.59801 3.45267 3.16201 2.42533 4.94067 1.628C6.75001 0.799998 8.68201 0.385998 10.7367 0.385998C12.6073 0.385998 14.2173 0.600664 15.5667 1.03C16.916 1.45933 18.02 2.07266 18.8787 2.87C19.768 3.63666 20.412 4.58733 20.8107 5.722C21.24 6.826 21.4547 8.08333 21.4547 9.494ZM39.4572 9.494C38.2612 11.058 36.9885 12.76 35.6392 14.6C34.2899 16.44 33.1552 18.326 32.2352 20.258H39.4572V9.494ZM46.1732 1.122V20.258H49.5772V25.87H46.1732V33H39.4572V25.87H25.7032V20.856C26.3779 19.5067 27.2212 17.9887 28.2332 16.302C29.2452 14.5847 30.3645 12.8367 31.5912 11.058C32.8485 9.24867 34.1672 7.48533 35.5472 5.768C36.9272 4.05067 38.3072 2.502 39.6872 1.122H46.1732ZM75.4917 16.992C75.4917 22.3587 74.4644 26.4833 72.4097 29.366C70.3857 32.218 67.5797 33.644 63.9917 33.644C60.4037 33.644 57.5824 32.218 55.5277 29.366C53.5037 26.4833 52.4917 22.3587 52.4917 16.992C52.4917 14.324 52.7524 11.9627 53.2737 9.908C53.8257 7.85333 54.6077 6.12067 55.6197 4.71C56.6317 3.29933 57.8431 2.226 59.2537 1.49C60.6644 0.753997 62.2437 0.385998 63.9917 0.385998C67.5797 0.385998 70.3857 1.82733 72.4097 4.71C74.4644 7.562 75.4917 11.656 75.4917 16.992ZM68.4997 16.992C68.4997 15.3973 68.4231 13.956 68.2697 12.668C68.1164 11.3493 67.8711 10.2147 67.5337 9.264C67.1964 8.31333 66.7364 7.57733 66.1537 7.056C65.5711 6.53467 64.8504 6.274 63.9917 6.274C63.1331 6.274 62.4124 6.53467 61.8297 7.056C61.2777 7.57733 60.8177 8.31333 60.4497 9.264C60.1124 10.2147 59.8671 11.3493 59.7137 12.668C59.5604 13.956 59.4837 15.3973 59.4837 16.992C59.4837 18.5867 59.5604 20.0433 59.7137 21.362C59.8671 22.6807 60.1124 23.8153 60.4497 24.766C60.8177 25.7167 61.2777 26.4527 61.8297 26.974C62.4124 27.4953 63.1331 27.756 63.9917 27.756C64.8504 27.756 65.5711 27.4953 66.1537 26.974C66.7364 26.4527 67.1964 25.7167 67.5337 24.766C67.8711 23.8153 68.1164 22.6807 68.2697 21.362C68.4231 20.0433 68.4997 18.5867 68.4997 16.992ZM101.636 16.992C101.636 22.3587 100.609 26.4833 98.5543 29.366C96.5303 32.218 93.7243 33.644 90.1363 33.644C86.5483 33.644 83.7269 32.218 81.6723 29.366C79.6483 26.4833 78.6363 22.3587 78.6363 16.992C78.6363 14.324 78.8969 11.9627 79.4183 9.908C79.9703 7.85333 80.7523 6.12067 81.7643 4.71C82.7763 3.29933 83.9876 2.226 85.3983 1.49C86.8089 0.753997 88.3883 0.385998 90.1363 0.385998C93.7243 0.385998 96.5303 1.82733 98.5543 4.71C100.609 7.562 101.636 11.656 101.636 16.992ZM94.6443 16.992C94.6443 15.3973 94.5676 13.956 94.4143 12.668C94.2609 11.3493 94.0156 10.2147 93.6783 9.264C93.3409 8.31333 92.8809 7.57733 92.2983 7.056C91.7156 6.53467 90.9949 6.274 90.1363 6.274C89.2776 6.274 88.5569 6.53467 87.9743 7.056C87.4223 7.57733 86.9623 8.31333 86.5943 9.264C86.2569 10.2147 86.0116 11.3493 85.8583 12.668C85.7049 13.956 85.6283 15.3973 85.6283 16.992C85.6283 18.5867 85.7049 20.0433 85.8583 21.362C86.0116 22.6807 86.2569 23.8153 86.5943 24.766C86.9623 25.7167 87.4223 26.4527 87.9743 26.974C88.5569 27.4953 89.2776 27.756 90.1363 27.756C90.9949 27.756 91.7156 27.4953 92.2983 26.974C92.8809 26.4527 93.3409 25.7167 93.6783 24.766C94.0156 23.8153 94.2609 22.6807 94.4143 21.362C94.5676 20.0433 94.6443 18.5867 94.6443 16.992ZM105.471 16.394H113.153V7.884H119.409V16.394H127.091V22.144H119.409V30.654H113.153V22.144H105.471V16.394Z" fill="#FF5A30"/>
</svg>
