<svg width="92" height="34" viewBox="0 0 92 34" fill="none" xmlns="http://www.w3.org/2000/svg">
<path d="M11.3462 18.004C10.6715 18.004 9.95085 18.0653 9.18419 18.188C8.41752 18.3107 7.81952 18.4793 7.39019 18.694C7.39019 18.8167 7.37485 19.0007 7.34419 19.246C7.34419 19.4913 7.34419 19.706 7.34419 19.89C7.34419 20.994 7.42085 22.0367 7.57419 23.018C7.72752 23.9993 7.98819 24.858 8.35619 25.594C8.72419 26.33 9.21485 26.9127 9.82819 27.342C10.4415 27.7407 11.2082 27.94 12.1282 27.94C12.8949 27.94 13.5389 27.7867 14.0602 27.48C14.6122 27.1427 15.0569 26.7287 15.3942 26.238C15.7622 25.7473 16.0229 25.2107 16.1762 24.628C16.3602 24.0147 16.4522 23.432 16.4522 22.88C16.4522 21.316 16.0535 20.12 15.2562 19.292C14.4895 18.4333 13.1862 18.004 11.3462 18.004ZM12.2202 12.668C14.2135 12.668 15.9002 12.944 17.2802 13.496C18.6909 14.0173 19.8409 14.738 20.7302 15.658C21.6195 16.578 22.2635 17.6513 22.6622 18.878C23.0609 20.1047 23.2602 21.408 23.2602 22.788C23.2602 24.0147 23.0302 25.272 22.5702 26.56C22.1409 27.848 21.4662 29.0133 20.5462 30.056C19.6569 31.0987 18.5069 31.9573 17.0962 32.632C15.7162 33.3067 14.0755 33.644 12.1742 33.644C8.34085 33.644 5.42752 32.4327 3.43419 30.01C1.44085 27.5873 0.444188 24.2447 0.444188 19.982C0.444188 16.9153 0.919521 14.2013 1.87019 11.84C2.82085 9.47867 4.17019 7.50067 5.91819 5.906C7.69685 4.28067 9.82819 3.054 12.3122 2.226C14.8269 1.36733 17.6482 0.922666 20.7762 0.891999C20.8375 1.84266 20.8989 2.778 20.9602 3.698C21.0215 4.58733 21.0829 5.52266 21.1442 6.504C19.5802 6.53466 18.1082 6.688 16.7282 6.964C15.3789 7.20933 14.1369 7.608 13.0022 8.16C11.8982 8.712 10.9322 9.43267 10.1042 10.322C9.27619 11.1807 8.63219 12.2387 8.17219 13.496C8.84685 13.1893 9.53685 12.9747 10.2422 12.852C10.9475 12.7293 11.6069 12.668 12.2202 12.668ZM49.4507 16.992C49.4507 22.3587 48.4234 26.4833 46.3687 29.366C44.3447 32.218 41.5387 33.644 37.9507 33.644C34.3627 33.644 31.5414 32.218 29.4867 29.366C27.4627 26.4833 26.4507 22.3587 26.4507 16.992C26.4507 14.324 26.7114 11.9627 27.2327 9.908C27.7847 7.85333 28.5667 6.12067 29.5787 4.71C30.5907 3.29933 31.8021 2.226 33.2127 1.49C34.6234 0.753997 36.2027 0.385998 37.9507 0.385998C41.5387 0.385998 44.3447 1.82733 46.3687 4.71C48.4234 7.562 49.4507 11.656 49.4507 16.992ZM42.4587 16.992C42.4587 15.3973 42.3821 13.956 42.2287 12.668C42.0754 11.3493 41.8301 10.2147 41.4927 9.264C41.1554 8.31333 40.6954 7.57733 40.1127 7.056C39.5301 6.53467 38.8094 6.274 37.9507 6.274C37.0921 6.274 36.3714 6.53467 35.7887 7.056C35.2367 7.57733 34.7767 8.31333 34.4087 9.264C34.0714 10.2147 33.8261 11.3493 33.6727 12.668C33.5194 13.956 33.4427 15.3973 33.4427 16.992C33.4427 18.5867 33.5194 20.0433 33.6727 21.362C33.8261 22.6807 34.0714 23.8153 34.4087 24.766C34.7767 25.7167 35.2367 26.4527 35.7887 26.974C36.3714 27.4953 37.0921 27.756 37.9507 27.756C38.8094 27.756 39.5301 27.4953 40.1127 26.974C40.6954 26.4527 41.1554 25.7167 41.4927 24.766C41.8301 23.8153 42.0754 22.6807 42.2287 21.362C42.3821 20.0433 42.4587 18.5867 42.4587 16.992ZM68.9253 9.31C68.9253 12.1927 68.1893 14.4007 66.7173 15.934C65.2453 17.4673 63.2673 18.234 60.7833 18.234C58.2993 18.234 56.3213 17.4673 54.8493 15.934C53.3773 14.4007 52.6413 12.1927 52.6413 9.31C52.6413 6.42733 53.3773 4.21933 54.8493 2.686C56.3213 1.15266 58.2993 0.385998 60.7833 0.385998C63.2673 0.385998 65.2453 1.15266 66.7173 2.686C68.1893 4.21933 68.9253 6.42733 68.9253 9.31ZM63.7273 9.31C63.7273 7.746 63.4513 6.61133 62.8993 5.906C62.3473 5.20066 61.6419 4.848 60.7833 4.848C59.8939 4.848 59.1733 5.20066 58.6213 5.906C58.0999 6.61133 57.8393 7.746 57.8393 9.31C57.8393 10.874 58.0999 12.024 58.6213 12.76C59.1733 13.4653 59.8939 13.818 60.7833 13.818C61.6419 13.818 62.3473 13.4653 62.8993 12.76C63.4513 12.024 63.7273 10.874 63.7273 9.31ZM77.8953 1.122H84.2893L66.3033 33H59.9093L77.8953 1.122ZM91.6493 24.812C91.6493 27.6947 90.9133 29.9027 89.4413 31.436C87.9693 32.9693 85.9913 33.736 83.5073 33.736C81.0233 33.736 79.0453 32.9693 77.5733 31.436C76.1013 29.9027 75.3653 27.6947 75.3653 24.812C75.3653 21.9293 76.1013 19.7213 77.5733 18.188C79.0453 16.6547 81.0233 15.888 83.5073 15.888C85.9913 15.888 87.9693 16.6547 89.4413 18.188C90.9133 19.7213 91.6493 21.9293 91.6493 24.812ZM86.4513 24.812C86.4513 23.248 86.1753 22.1133 85.6233 21.408C85.0713 20.7027 84.3659 20.35 83.5073 20.35C82.6179 20.35 81.8973 20.7027 81.3453 21.408C80.8239 22.1133 80.5633 23.248 80.5633 24.812C80.5633 26.376 80.8239 27.526 81.3453 28.262C81.8973 28.9673 82.6179 29.32 83.5073 29.32C84.3659 29.32 85.0713 28.9673 85.6233 28.262C86.1753 27.526 86.4513 26.376 86.4513 24.812Z" fill="#FF5A30"/>
</svg>
