<svg width="76" height="34" viewBox="0 0 76 34" fill="none" xmlns="http://www.w3.org/2000/svg">
<path d="M11.3872 18.004C10.7125 18.004 9.99187 18.0653 9.2252 18.188C8.45854 18.3107 7.86054 18.4793 7.4312 18.694C7.4312 18.8167 7.41587 19.0007 7.3852 19.246C7.3852 19.4913 7.3852 19.706 7.3852 19.89C7.3852 20.994 7.46187 22.0367 7.6152 23.018C7.76854 23.9993 8.0292 24.858 8.3972 25.594C8.7652 26.33 9.25587 26.9127 9.8692 27.342C10.4825 27.7407 11.2492 27.94 12.1692 27.94C12.9359 27.94 13.5799 27.7867 14.1012 27.48C14.6532 27.1427 15.0979 26.7287 15.4352 26.238C15.8032 25.7473 16.0639 25.2107 16.2172 24.628C16.4012 24.0147 16.4932 23.432 16.4932 22.88C16.4932 21.316 16.0945 20.12 15.2972 19.292C14.5305 18.4333 13.2272 18.004 11.3872 18.004ZM12.2612 12.668C14.2545 12.668 15.9412 12.944 17.3212 13.496C18.7319 14.0173 19.8819 14.738 20.7712 15.658C21.6605 16.578 22.3045 17.6513 22.7032 18.878C23.1019 20.1047 23.3012 21.408 23.3012 22.788C23.3012 24.0147 23.0712 25.272 22.6112 26.56C22.1819 27.848 21.5072 29.0133 20.5872 30.056C19.6979 31.0987 18.5479 31.9573 17.1372 32.632C15.7572 33.3067 14.1165 33.644 12.2152 33.644C8.38187 33.644 5.46854 32.4327 3.4752 30.01C1.48187 27.5873 0.485203 24.2447 0.485203 19.982C0.485203 16.9153 0.960537 14.2013 1.9112 11.84C2.86187 9.47867 4.2112 7.50067 5.9592 5.906C7.73787 4.28067 9.8692 3.054 12.3532 2.226C14.8679 1.36733 17.6892 0.922666 20.8172 0.891999C20.8785 1.84266 20.9399 2.778 21.0012 3.698C21.0625 4.58733 21.1239 5.52266 21.1852 6.504C19.6212 6.53466 18.1492 6.688 16.7692 6.964C15.4199 7.20933 14.1779 7.608 13.0432 8.16C11.9392 8.712 10.9732 9.43267 10.1452 10.322C9.3172 11.1807 8.6732 12.2387 8.2132 13.496C8.88787 13.1893 9.57787 12.9747 10.2832 12.852C10.9885 12.7293 11.6479 12.668 12.2612 12.668ZM31.4597 33C31.6437 30.7613 32.0271 28.4307 32.6097 26.008C33.1924 23.5853 33.8977 21.2087 34.7257 18.878C35.5844 16.5473 36.5351 14.3547 37.5777 12.3C38.6204 10.2147 39.6784 8.42067 40.7517 6.918H26.9057V1.076H49.2157V6.044C48.2344 7.11733 47.1457 8.60467 45.9497 10.506C44.7844 12.4073 43.6651 14.5693 42.5917 16.992C41.5491 19.384 40.6291 21.96 39.8317 24.72C39.0651 27.48 38.5897 30.24 38.4057 33H31.4597ZM75.6363 16.992C75.6363 22.3587 74.6089 26.4833 72.5543 29.366C70.5303 32.218 67.7243 33.644 64.1363 33.644C60.5483 33.644 57.7269 32.218 55.6723 29.366C53.6483 26.4833 52.6363 22.3587 52.6363 16.992C52.6363 14.324 52.8969 11.9627 53.4183 9.908C53.9703 7.85333 54.7523 6.12067 55.7643 4.71C56.7763 3.29933 57.9876 2.226 59.3983 1.49C60.8089 0.753997 62.3883 0.385998 64.1363 0.385998C67.7243 0.385998 70.5303 1.82733 72.5543 4.71C74.6089 7.562 75.6363 11.656 75.6363 16.992ZM68.6443 16.992C68.6443 15.3973 68.5676 13.956 68.4143 12.668C68.2609 11.3493 68.0156 10.2147 67.6783 9.264C67.3409 8.31333 66.8809 7.57733 66.2983 7.056C65.7156 6.53467 64.9949 6.274 64.1363 6.274C63.2776 6.274 62.5569 6.53467 61.9743 7.056C61.4223 7.57733 60.9623 8.31333 60.5943 9.264C60.2569 10.2147 60.0116 11.3493 59.8583 12.668C59.7049 13.956 59.6283 15.3973 59.6283 16.992C59.6283 18.5867 59.7049 20.0433 59.8583 21.362C60.0116 22.6807 60.2569 23.8153 60.5943 24.766C60.9623 25.7167 61.4223 26.4527 61.9743 26.974C62.5569 27.4953 63.2776 27.756 64.1363 27.756C64.9949 27.756 65.7156 27.4953 66.2983 26.974C66.8809 26.4527 67.3409 25.7167 67.6783 24.766C68.0156 23.8153 68.2609 22.6807 68.4143 21.362C68.5676 20.0433 68.6443 18.5867 68.6443 16.992Z" fill="#FF5A30"/>
</svg>
